<svg id="Layer_1" data-name="Layer 1" xmlns="http://www.w3.org/2000/svg" viewBox="0 0 53.87 54"><defs><style>.cls-1{fill:#939598;}</style></defs><title>3 doi tac bac</title><path class="cls-1" d="M27.13,1.17A17.61,17.61,0,1,0,44.74,18.78,17.63,17.63,0,0,0,27.13,1.17Zm9.25,15.12-3,3.81.34,5A1.6,1.6,0,0,1,33,26.48a1.56,1.56,0,0,1-.92.3,1.51,1.51,0,0,1-.63-.13l-4.32-1.83-4.32,1.83a1.6,1.6,0,0,1-2.22-1.58l.33-5-3-3.81a1.6,1.6,0,0,1,.84-2.55l4.54-1.19,2.49-4.19a1.65,1.65,0,0,1,2.75,0L31,12.55l4.55,1.19a1.6,1.6,0,0,1,.84,2.55Z"/><path class="cls-1" d="M9.12,29.16,1.74,42a1.6,1.6,0,0,0,1.8,2.35l9.4-2.53,2.5,9.4a1.59,1.59,0,0,0,1.33,1.18H17a1.6,1.6,0,0,0,1.39-.8l7-12.1A20.84,20.84,0,0,1,9.12,29.16Z"/><path class="cls-1" d="M52.53,42,45.14,29.16A20.82,20.82,0,0,1,28.9,39.49l7,12.1a1.6,1.6,0,0,0,1.39.8l.21,0a1.6,1.6,0,0,0,1.33-1.17l2.5-9.4,9.4,2.53A1.61,1.61,0,0,0,52.53,42Z"/></svg>